REM DIRINDEX 1\2\4,1\2\5,1\2\6,1\3\7,1\3\8,1\3\9,1\3\10
REM DIRNAME cjc057,folder01,folder02,folder03,folder04,folder05,folder06,folder07,folder08,folder09
TITLE ""
FILE "b_039.mp3" MP3
  TRACK 01 AUDIO
    TITLE "0:"
    INDEX 01 00:00:00
  TRACK 02 AUDIO
    TITLE "7:cjc057_05357"
    INDEX 01 00:00:13
  TRACK 03 AUDIO
    TITLE "0:"
    INDEX 01 00:01:19
  TRACK 04 AUDIO
    TITLE "8:cjc057_05358"
    INDEX 01 00:01:50
  TRACK 05 AUDIO
    TITLE "0:"
    INDEX 01 00:02:55
  TRACK 06 AUDIO
    TITLE "9:cjc057_05359"
    INDEX 01 00:03:25
  TRACK 07 AUDIO
    TITLE "0:"
    INDEX 01 00:07:58
  TRACK 08 AUDIO
    TITLE "7:cjc057_05360"
    INDEX 01 00:08:64
  TRACK 09 AUDIO
    TITLE "0:"
    INDEX 01 00:09:67
  TRACK 10 AUDIO
    TITLE "8:cjc057_05361"
    INDEX 01 00:10:25
  TRACK 11 AUDIO
    TITLE "0:"
    INDEX 01 00:12:28
  TRACK 12 AUDIO
    TITLE "9:cjc057_05362"
    INDEX 01 00:12:71
  TRACK 13 AUDIO
    TITLE "0:"
    INDEX 01 00:15:56
  TRACK 14 AUDIO
    TITLE "7:cjc057_05363"
    INDEX 01 00:16:67
  TRACK 15 AUDIO
    TITLE "0:"
    INDEX 01 00:18:01
  TRACK 16 AUDIO
    TITLE "8:cjc057_05364"
    INDEX 01 00:18:35
  TRACK 17 AUDIO
    TITLE "0:"
    INDEX 01 00:20:65
  TRACK 18 AUDIO
    TITLE "9:cjc057_05365"
    INDEX 01 00:21:39
  TRACK 19 AUDIO
    TITLE "0:"
    INDEX 01 00:25:15
  TRACK 20 AUDIO
    TITLE "7:cjc057_05366"
    INDEX 01 00:26:24
  TRACK 21 AUDIO
    TITLE "0:"
    INDEX 01 00:27:55
  TRACK 22 AUDIO
    TITLE "8:cjc057_05367"
    INDEX 01 00:28:13
  TRACK 23 AUDIO
    TITLE "0:"
    INDEX 01 00:29:56
  TRACK 24 AUDIO
    TITLE "9:cjc057_05368"
    INDEX 01 00:30:26
  TRACK 25 AUDIO
    TITLE "0:"
    INDEX 01 00:34:32
  TRACK 26 AUDIO
    TITLE "7:cjc057_05369"
    INDEX 01 00:35:43
  TRACK 27 AUDIO
    TITLE "0:"
    INDEX 01 00:36:60
  TRACK 28 AUDIO
    TITLE "8:cjc057_05370"
    INDEX 01 00:37:14
  TRACK 29 AUDIO
    TITLE "0:"
    INDEX 01 00:38:16
  TRACK 30 AUDIO
    TITLE "9:cjc057_05371"
    INDEX 01 00:38:63
  TRACK 31 AUDIO
    TITLE "0:"
    INDEX 01 00:42:74
  TRACK 32 AUDIO
    TITLE "7:cjc057_05372"
    INDEX 01 00:44:09
  TRACK 33 AUDIO
    TITLE "0:"
    INDEX 01 00:45:12
  TRACK 34 AUDIO
    TITLE "8:cjc057_05373"
    INDEX 01 00:45:47
  TRACK 35 AUDIO
    TITLE "0:"
    INDEX 01 00:47:07
  TRACK 36 AUDIO
    TITLE "9:cjc057_05374"
    INDEX 01 00:47:52
  TRACK 37 AUDIO
    TITLE "0:"
    INDEX 01 00:51:48
  TRACK 38 AUDIO
    TITLE "7:cjc057_05375"
    INDEX 01 00:52:59
  TRACK 39 AUDIO
    TITLE "0:"
    INDEX 01 00:54:01
  TRACK 40 AUDIO
    TITLE "8:cjc057_05376"
    INDEX 01 00:54:34
  TRACK 41 AUDIO
    TITLE "0:"
    INDEX 01 00:55:57
  TRACK 42 AUDIO
    TITLE "9:cjc057_05377"
    INDEX 01 00:56:27
  TRACK 43 AUDIO
    TITLE "0:"
    INDEX 01 00:59:16
  TRACK 44 AUDIO
    TITLE "7:cjc057_05378"
    INDEX 01 01:00:25
  TRACK 45 AUDIO
    TITLE "0:"
    INDEX 01 01:01:52
  TRACK 46 AUDIO
    TITLE "8:cjc057_05379"
    INDEX 01 01:02:10
  TRACK 47 AUDIO
    TITLE "0:"
    INDEX 01 01:04:47
  TRACK 48 AUDIO
    TITLE "9:cjc057_05380"
    INDEX 01 01:05:17
  TRACK 49 AUDIO
    TITLE "0:"
    INDEX 01 01:09:01
  TRACK 50 AUDIO
    TITLE "7:cjc057_05381"
    INDEX 01 01:10:12
  TRACK 51 AUDIO
    TITLE "0:"
    INDEX 01 01:11:27
  TRACK 52 AUDIO
    TITLE "8:cjc057_05382"
    INDEX 01 01:11:62
  TRACK 53 AUDIO
    TITLE "0:"
    INDEX 01 01:13:20
  TRACK 54 AUDIO
    TITLE "9:cjc057_05383"
    INDEX 01 01:13:63
  TRACK 55 AUDIO
    TITLE "0:"
    INDEX 01 01:17:28
  TRACK 56 AUDIO
    TITLE "7:cjc057_05384"
    INDEX 01 01:18:37
  TRACK 57 AUDIO
    TITLE "0:"
    INDEX 01 01:19:44
  TRACK 58 AUDIO
    TITLE "8:cjc057_05385"
    INDEX 01 01:20:00
  TRACK 59 AUDIO
    TITLE "0:"
    INDEX 01 01:21:51
  TRACK 60 AUDIO
    TITLE "9:cjc057_05386"
    INDEX 01 01:22:23
  TRACK 61 AUDIO
    TITLE "0:"
    INDEX 01 01:25:57
